<?xml version="1.0" encoding="UTF-8" standalone="no"?>
<svg
   xmlns:dc="http://purl.org/dc/elements/1.1/"
   xmlns:cc="http://creativecommons.org/ns#"
   xmlns:rdf="http://www.w3.org/1999/02/22-rdf-syntax-ns#"
   xmlns:svg="http://www.w3.org/2000/svg"
   xmlns="http://www.w3.org/2000/svg"
   xmlns:sodipodi="http://sodipodi.sourceforge.net/DTD/sodipodi-0.dtd"
   xmlns:inkscape="http://www.inkscape.org/namespaces/inkscape"
   width="194.38422mm"
   height="67.959732mm"
   viewBox="0 0 194.38422 67.959732"
   version="1.1"
   id="svg1477"
   inkscape:version="1.0.2 (e86c870879, 2021-01-15, custom)"
   sodipodi:docname="logo_fixed_white.svg">
  <defs
     id="defs1471">
    <clipPath
       clipPathUnits="userSpaceOnUse"
       id="clipPath1845-9-8-1-3-4">
      <rect
         style="fill:#b20000;fill-opacity:0.26506;stroke:none;stroke-width:2.36919;stroke-linecap:round;stroke-linejoin:round;stroke-miterlimit:4;stroke-dasharray:none;stroke-opacity:1"
         id="rect1847-9-0-5-8-6"
         width="5.4000978"
         height="25.657875"
         x="107.5881"
         y="298.07236" />
    </clipPath>
    <clipPath
       clipPathUnits="userSpaceOnUse"
       id="clipPath1099-2-74-2">
      <rect
         style="fill:#b20000;fill-opacity:0.26506;stroke-width:2.5902;stroke-linecap:round;stroke-linejoin:round"
         id="rect1101-8-2-9"
         width="22.820312"
         height="24.521206"
         x="81.877579"
         y="298.62607" />
    </clipPath>
    <rect
       x="13.898015"
       y="159.02538"
       width="81.116302"
       height="13.898015"
       id="rect839-2-6-0-3-7-9-7-1-3" />
    <rect
       x="13.898015"
       y="159.02538"
       width="81.116302"
       height="13.898015"
       id="rect1427" />
  </defs>
  <sodipodi:namedview
     id="base"
     pagecolor="#ffffff"
     bordercolor="#666666"
     borderopacity="1.0"
     inkscape:pageopacity="0.0"
     inkscape:pageshadow="2"
     inkscape:zoom="0.49497475"
     inkscape:cx="480.34658"
     inkscape:cy="108.36968"
     inkscape:document-units="mm"
     inkscape:current-layer="layer1"
     inkscape:document-rotation="0"
     showgrid="false"
     inkscape:window-width="1920"
     inkscape:window-height="1017"
     inkscape:window-x="-8"
     inkscape:window-y="-8"
     inkscape:window-maximized="1"
     fit-margin-top="0"
     fit-margin-left="0"
     fit-margin-right="0"
     fit-margin-bottom="0" />
  <metadata
     id="metadata1474">
    <rdf:RDF>
      <cc:Work
         rdf:about="">
        <dc:format>image/svg+xml</dc:format>
        <dc:type
           rdf:resource="http://purl.org/dc/dcmitype/StillImage" />
        <dc:title></dc:title>
      </cc:Work>
    </rdf:RDF>
  </metadata>
  <g
     inkscape:label="Capa 1"
     inkscape:groupmode="layer"
     id="layer1"
     transform="translate(-11.147588,-118.37498)">
    <g
       aria-label="resomapper"
       transform="matrix(2.6432783,0,0,2.6432783,0.6253387,-286.29046)"
       id="text837-5-6-6-8-6-3-5-47"
       style="font-style:normal;font-weight:normal;font-size:10.5833px;line-height:1.25;font-family:sans-serif;white-space:pre;shape-inside:url(#rect839-2-6-0-3-7-9-7-1-3);fill:#ffffff;fill-opacity:1;stroke:none;stroke-width:0.999895;stroke-miterlimit:4;stroke-dasharray:none">
      <path
         d="m 14.787435,168.69884 q -0.116417,0 -0.1905,-0.0741 -0.07408,-0.0741 -0.07408,-0.1905 v -4.97415 q 0,-0.10584 0.07408,-0.17992 0.07408,-0.0847 0.1905,-0.0847 h 1.217079 q 0.116416,0 0.1905,0.0847 0.07408,0.0741 0.07408,0.17992 v 0.42333 q 0.285749,-0.32808 0.677331,-0.508 0.402165,-0.17992 0.89958,-0.17992 h 0.465665 q 0.105833,0 0.179917,0.0741 0.08467,0.0741 0.08467,0.1905 v 1.09008 q 0,0.10583 -0.08467,0.1905 -0.07408,0.0741 -0.179917,0.0741 h -1.02658 q -0.433915,0 -0.677331,0.24341 -0.232832,0.23284 -0.232832,0.66675 v 2.70933 q 0,0.11641 -0.08467,0.1905 -0.07408,0.0741 -0.190499,0.0741 z"
         style="font-style:normal;font-variant:normal;font-weight:bold;font-stretch:normal;font-family:'Rubik Light';-inkscape-font-specification:'Rubik Light, Bold';fill:#ffffff;fill-opacity:1;stroke-width:0.999895;stroke-miterlimit:4;stroke-dasharray:none"
         id="path843" />
      <path
         d="m 21.820008,168.80467 q -1.248829,0 -1.98966,-0.67733 -0.740831,-0.67733 -0.772581,-2.01083 0,-0.0741 0,-0.1905 0,-0.11641 0,-0.17991 0.03175,-0.83608 0.370415,-1.42875 0.349249,-0.60325 0.952497,-0.91016 0.613832,-0.3175 1.428746,-0.3175 0.93133,0 1.534578,0.37042 0.613832,0.37041 0.920747,1.00541 0.306916,0.635 0.306916,1.44991 v 0.254 q 0,0.11642 -0.08467,0.1905 -0.07408,0.0741 -0.179916,0.0741 h -3.386656 q 0,0.0106 0,0.0317 0,0.0212 0,0.0423 0.01058,0.30691 0.105833,0.56091 0.09525,0.254 0.296332,0.40217 0.201083,0.14816 0.486832,0.14816 0.211666,0 0.349249,-0.0635 0.148166,-0.0741 0.243416,-0.15875 0.09525,-0.0952 0.148166,-0.15875 0.09525,-0.10583 0.148166,-0.127 0.0635,-0.0318 0.190499,-0.0318 h 1.31233 q 0.105833,0 0.169332,0.0635 0.07408,0.0529 0.0635,0.15875 -0.01058,0.17992 -0.179916,0.43392 -0.169333,0.254 -0.497415,0.508 -0.317499,0.24341 -0.804331,0.40216 -0.486832,0.15875 -1.132413,0.15875 z m -0.89958,-3.4184 h 1.788577 v -0.0212 q 0,-0.33867 -0.105833,-0.59267 -0.09525,-0.25399 -0.306915,-0.39158 -0.201083,-0.13758 -0.486832,-0.13758 -0.285749,0 -0.486832,0.13758 -0.190499,0.13759 -0.296332,0.39158 -0.105833,0.254 -0.105833,0.59267 z"
         style="font-style:normal;font-variant:normal;font-weight:bold;font-stretch:normal;font-family:'Rubik Light';-inkscape-font-specification:'Rubik Light, Bold';fill:#ffffff;fill-opacity:1;stroke-width:0.999895;stroke-miterlimit:4;stroke-dasharray:none"
         id="path845" />
      <path
         d="m 27.83132,168.80467 q -0.687914,0 -1.174746,-0.14816 -0.476248,-0.15875 -0.783164,-0.381 -0.296332,-0.22225 -0.444499,-0.45508 -0.148166,-0.24342 -0.158749,-0.41275 -0.01058,-0.11642 0.07408,-0.1905 0.08467,-0.0847 0.179916,-0.0847 h 1.206496 q 0.03175,0 0.05292,0.0106 0.02117,0.0106 0.0635,0.0423 0.137583,0.0741 0.275166,0.1905 0.137583,0.10583 0.317499,0.1905 0.179916,0.0847 0.433916,0.0847 0.296332,0 0.497415,-0.11641 0.201082,-0.11642 0.201082,-0.34925 0,-0.16934 -0.09525,-0.27517 -0.09525,-0.11641 -0.391582,-0.22225 -0.28575,-0.10583 -0.867831,-0.21166 -0.550332,-0.127 -0.96308,-0.32809 -0.412749,-0.21166 -0.634998,-0.53974 -0.22225,-0.33867 -0.22225,-0.81492 0,-0.42333 0.275166,-0.81491 0.275166,-0.39158 0.804331,-0.635 0.529165,-0.254 1.301746,-0.254 0.613831,0 1.05833,0.14817 0.455082,0.13758 0.761997,0.35983 0.317499,0.22225 0.476249,0.45508 0.158749,0.23283 0.169333,0.42333 0.01058,0.10584 -0.0635,0.1905 -0.07408,0.0741 -0.169333,0.0741 h -1.100663 q -0.04233,0 -0.08467,-0.0106 -0.04233,-0.0212 -0.07408,-0.0423 -0.126999,-0.0635 -0.253999,-0.16933 -0.126999,-0.10584 -0.296332,-0.1905 -0.169333,-0.0847 -0.423332,-0.0847 -0.285749,0 -0.444499,0.127 -0.158749,0.127 -0.158749,0.32808 0,0.13758 0.08467,0.254 0.09525,0.11642 0.370416,0.21167 0.285749,0.0952 0.878414,0.21166 0.730247,0.11642 1.164162,0.381 0.433916,0.254 0.613832,0.60325 0.179916,0.33867 0.179916,0.71966 0,0.508 -0.306916,0.89958 -0.296332,0.39159 -0.888997,0.61384 -0.592665,0.21166 -1.439329,0.21166 z"
         style="font-style:normal;font-variant:normal;font-weight:bold;font-stretch:normal;font-family:'Rubik Light';-inkscape-font-specification:'Rubik Light, Bold';fill:#ffffff;fill-opacity:1;stroke-width:0.999895;stroke-miterlimit:4;stroke-dasharray:none"
         id="path847" />
      <path
         d="m 34.022546,168.80467 q -0.888997,0 -1.502829,-0.28575 -0.603248,-0.28575 -0.93133,-0.81491 -0.317499,-0.53975 -0.359832,-1.28058 -0.01058,-0.21167 -0.01058,-0.47625 0,-0.27516 0.01058,-0.47625 0.04233,-0.75141 0.380999,-1.28058 0.338665,-0.52916 0.941913,-0.81491 0.613832,-0.28575 1.471079,-0.28575 0.867831,0 1.471079,0.28575 0.613831,0.28575 0.952497,0.81491 0.338665,0.52917 0.380998,1.28058 0.01058,0.20109 0.01058,0.47625 0,0.26458 -0.01058,0.47625 -0.04233,0.74083 -0.370415,1.28058 -0.317499,0.52916 -0.93133,0.81491 -0.603249,0.28575 -1.502829,0.28575 z m 0,-1.29116 q 0.476248,0 0.687914,-0.28575 0.22225,-0.28575 0.254,-0.85725 0.01058,-0.15875 0.01058,-0.42333 0,-0.26458 -0.01058,-0.42333 -0.03175,-0.56092 -0.254,-0.84666 -0.211666,-0.29634 -0.687914,-0.29634 -0.465665,0 -0.687914,0.29634 -0.22225,0.28574 -0.243416,0.84666 -0.01058,0.15875 -0.01058,0.42333 0,0.26458 0.01058,0.42333 0.02117,0.5715 0.243416,0.85725 0.222249,0.28575 0.687914,0.28575 z"
         style="font-style:normal;font-variant:normal;font-weight:bold;font-stretch:normal;font-family:'Rubik Light';-inkscape-font-specification:'Rubik Light, Bold';fill:#ffffff;fill-opacity:1;stroke-width:0.999895;stroke-miterlimit:4;stroke-dasharray:none"
         id="path849" />
      <path
         d="m 38.150014,168.69884 q -0.116416,0 -0.190499,-0.0741 -0.07408,-0.0741 -0.07408,-0.1905 v -4.97415 q 0,-0.11642 0.07408,-0.1905 0.07408,-0.0741 0.190499,-0.0741 h 1.15358 q 0.116416,0 0.190499,0.0741 0.07408,0.0741 0.07408,0.1905 v 0.35983 q 0.211666,-0.28575 0.592665,-0.49742 0.380999,-0.22225 0.89958,-0.23283 1.21708,-0.0212 1.672162,0.92075 0.243416,-0.40217 0.698498,-0.65617 0.455081,-0.26458 0.99483,-0.26458 0.550331,0 0.984247,0.254 0.444498,0.24342 0.709081,0.762 0.264582,0.508 0.264582,1.32291 v 3.00566 q 0,0.11641 -0.08467,0.1905 -0.07408,0.0741 -0.179916,0.0741 h -1.227663 q -0.116416,0 -0.201083,-0.0741 -0.07408,-0.0741 -0.07408,-0.1905 v -2.93158 q 0,-0.37041 -0.105833,-0.58208 -0.105833,-0.22225 -0.285749,-0.3175 -0.179916,-0.0953 -0.412749,-0.0953 -0.190499,0 -0.380998,0.0953 -0.179917,0.0952 -0.296333,0.3175 -0.105833,0.21167 -0.105833,0.58208 v 2.93158 q 0,0.11641 -0.07408,0.1905 -0.07408,0.0741 -0.190499,0.0741 H 41.53667 q -0.116416,0 -0.190499,-0.0741 -0.07408,-0.0741 -0.07408,-0.1905 v -2.93158 q 0,-0.37041 -0.116416,-0.58208 -0.116416,-0.22225 -0.296332,-0.3175 -0.179916,-0.0953 -0.402166,-0.0953 -0.190499,0 -0.380998,0.0953 -0.179917,0.0952 -0.296333,0.3175 -0.105833,0.21167 -0.105833,0.5715 v 2.94216 q 0,0.11641 -0.08467,0.1905 -0.07408,0.0741 -0.1905,0.0741 z"
         style="font-style:normal;font-variant:normal;font-weight:bold;font-stretch:normal;font-family:'Rubik Light';-inkscape-font-specification:'Rubik Light, Bold';fill:#ffffff;fill-opacity:1;stroke-width:0.999895;stroke-miterlimit:4;stroke-dasharray:none"
         id="path851" />
      <path
         d="m 49.230713,168.80467 q -0.571499,0 -1.02658,-0.21166 -0.444499,-0.22225 -0.709082,-0.59267 -0.264582,-0.37041 -0.264582,-0.83608 0,-0.75141 0.613831,-1.18533 0.613832,-0.4445 1.629829,-0.60325 l 1.322912,-0.20108 v -0.14817 q 0,-0.38099 -0.15875,-0.58208 -0.158749,-0.20108 -0.582081,-0.20108 -0.296332,0 -0.486832,0.11642 -0.179916,0.11641 -0.285749,0.3175 -0.09525,0.13758 -0.264582,0.13758 h -1.18533 q -0.116416,0 -0.179916,-0.0635 -0.0635,-0.0741 -0.05292,-0.16933 0,-0.1905 0.137583,-0.43392 0.148167,-0.254 0.444499,-0.49741 0.296332,-0.24342 0.761998,-0.40217 0.465665,-0.15875 1.121829,-0.15875 0.687915,0 1.174747,0.15875 0.486831,0.15875 0.783164,0.4445 0.306915,0.28575 0.455082,0.67733 0.148166,0.381 0.148166,0.84666 v 3.21733 q 0,0.11641 -0.08467,0.1905 -0.07408,0.0741 -0.179916,0.0741 h -1.227662 q -0.116417,0 -0.1905,-0.0741 -0.07408,-0.0741 -0.07408,-0.1905 v -0.37042 q -0.137583,0.20108 -0.370415,0.37042 -0.232833,0.16933 -0.550332,0.26458 -0.306916,0.10583 -0.719664,0.10583 z m 0.497415,-1.20649 q 0.306915,0 0.550331,-0.127 0.253999,-0.13759 0.391582,-0.41275 0.148167,-0.28575 0.148167,-0.70908 v -0.14817 l -0.899581,0.15875 q -0.497415,0.0847 -0.730248,0.26458 -0.222249,0.16934 -0.222249,0.40217 0,0.17991 0.105833,0.30691 0.105833,0.127 0.275166,0.20109 0.169333,0.0635 0.380999,0.0635 z"
         style="font-style:normal;font-variant:normal;font-weight:bold;font-stretch:normal;font-family:'Rubik Light';-inkscape-font-specification:'Rubik Light, Bold';fill:#ffffff;fill-opacity:1;stroke-width:0.999895;stroke-miterlimit:4;stroke-dasharray:none"
         id="path853" />
      <path
         d="m 54.08843,170.70967 q -0.116417,0 -0.1905,-0.0741 -0.07408,-0.0741 -0.07408,-0.1905 v -6.98497 q 0,-0.11642 0.07408,-0.1905 0.07408,-0.0741 0.1905,-0.0741 h 1.195912 q 0.105833,0 0.179916,0.0741 0.08467,0.0741 0.08467,0.1905 v 0.39158 q 0.243416,-0.32808 0.645581,-0.53975 0.402166,-0.22225 0.99483,-0.22225 0.529165,0 0.931331,0.16933 0.402165,0.15875 0.687914,0.47625 0.285749,0.3175 0.444499,0.77258 0.169333,0.45508 0.190499,1.04775 0.01058,0.21167 0.01058,0.39158 0,0.17992 -0.01058,0.39158 -0.02117,0.5715 -0.179916,1.02658 -0.158749,0.45509 -0.444499,0.77258 -0.285749,0.3175 -0.698497,0.49742 -0.402166,0.16933 -0.931331,0.16933 -0.518581,0 -0.910163,-0.17991 -0.380999,-0.1905 -0.634998,-0.52917 v 2.34949 q 0,0.11642 -0.07408,0.1905 -0.07408,0.0741 -0.190499,0.0741 z m 2.529408,-3.32316 q 0.359832,0 0.560915,-0.14817 0.201083,-0.14816 0.285749,-0.40216 0.09525,-0.254 0.116416,-0.56092 0.02117,-0.32808 0,-0.65616 -0.02117,-0.30692 -0.116416,-0.56092 -0.08467,-0.254 -0.285749,-0.40216 -0.201083,-0.14817 -0.560915,-0.14817 -0.349249,0 -0.560915,0.15875 -0.211666,0.14817 -0.306915,0.39158 -0.09525,0.24342 -0.105833,0.52917 -0.01058,0.20108 -0.01058,0.39158 0,0.1905 0.01058,0.40217 0.01058,0.26458 0.116416,0.49741 0.105833,0.22225 0.317499,0.37042 0.211666,0.13758 0.539748,0.13758 z"
         style="font-style:normal;font-variant:normal;font-weight:bold;font-stretch:normal;font-family:'Rubik Light';-inkscape-font-specification:'Rubik Light, Bold';fill:#ffffff;fill-opacity:1;stroke-width:0.999895;stroke-miterlimit:4;stroke-dasharray:none"
         id="path855" />
      <path
         d="m 60.766477,170.70967 q -0.116417,0 -0.1905,-0.0741 -0.07408,-0.0741 -0.07408,-0.1905 v -6.98497 q 0,-0.11642 0.07408,-0.1905 0.07408,-0.0741 0.1905,-0.0741 h 1.195913 q 0.105833,0 0.179916,0.0741 0.08467,0.0741 0.08467,0.1905 v 0.39158 q 0.243416,-0.32808 0.645581,-0.53975 0.402166,-0.22225 0.994831,-0.22225 0.529164,0 0.93133,0.16933 0.402165,0.15875 0.687914,0.47625 0.285749,0.3175 0.444499,0.77258 0.169333,0.45508 0.190499,1.04775 0.01058,0.21167 0.01058,0.39158 0,0.17992 -0.01058,0.39158 -0.02117,0.5715 -0.179916,1.02658 -0.158749,0.45509 -0.444498,0.77258 -0.285749,0.3175 -0.698498,0.49742 -0.402166,0.16933 -0.93133,0.16933 -0.518582,0 -0.910164,-0.17991 -0.380999,-0.1905 -0.634998,-0.52917 v 2.34949 q 0,0.11642 -0.07408,0.1905 -0.07408,0.0741 -0.1905,0.0741 z m 2.529408,-3.32316 q 0.359833,0 0.560915,-0.14817 0.201083,-0.14816 0.285749,-0.40216 0.09525,-0.254 0.116417,-0.56092 0.02117,-0.32808 0,-0.65616 -0.02117,-0.30692 -0.116417,-0.56092 -0.08467,-0.254 -0.285749,-0.40216 -0.201082,-0.14817 -0.560915,-0.14817 -0.349249,0 -0.560915,0.15875 -0.211666,0.14817 -0.306915,0.39158 -0.09525,0.24342 -0.105833,0.52917 -0.01058,0.20108 -0.01058,0.39158 0,0.1905 0.01058,0.40217 0.01058,0.26458 0.116416,0.49741 0.105833,0.22225 0.317499,0.37042 0.211666,0.13758 0.539748,0.13758 z"
         style="font-style:normal;font-variant:normal;font-weight:bold;font-stretch:normal;font-family:'Rubik Light';-inkscape-font-specification:'Rubik Light, Bold';fill:#ffffff;fill-opacity:1;stroke-width:0.999895;stroke-miterlimit:4;stroke-dasharray:none"
         id="path857" />
      <path
         d="m 69.719933,168.80467 q -1.248829,0 -1.98966,-0.67733 -0.740831,-0.67733 -0.772581,-2.01083 0,-0.0741 0,-0.1905 0,-0.11641 0,-0.17991 0.03175,-0.83608 0.370416,-1.42875 0.349248,-0.60325 0.952497,-0.91016 0.613831,-0.3175 1.428745,-0.3175 0.93133,0 1.534578,0.37042 0.613832,0.37041 0.920748,1.00541 0.306915,0.635 0.306915,1.44991 v 0.254 q 0,0.11642 -0.08467,0.1905 -0.07408,0.0741 -0.179916,0.0741 h -3.386656 q 0,0.0106 0,0.0317 0,0.0212 0,0.0423 0.01058,0.30691 0.105833,0.56091 0.09525,0.254 0.296332,0.40217 0.201083,0.14816 0.486832,0.14816 0.211666,0 0.349249,-0.0635 0.148166,-0.0741 0.243416,-0.15875 0.09525,-0.0952 0.148166,-0.15875 0.09525,-0.10583 0.148166,-0.127 0.0635,-0.0318 0.1905,-0.0318 h 1.312329 q 0.105833,0 0.169333,0.0635 0.07408,0.0529 0.0635,0.15875 -0.01058,0.17992 -0.179916,0.43392 -0.169333,0.254 -0.497415,0.508 -0.317499,0.24341 -0.804331,0.40216 -0.486831,0.15875 -1.132413,0.15875 z m -0.89958,-3.4184 h 1.788577 v -0.0212 q 0,-0.33867 -0.105833,-0.59267 -0.09525,-0.25399 -0.306915,-0.39158 -0.201083,-0.13758 -0.486832,-0.13758 -0.285749,0 -0.486832,0.13758 -0.190499,0.13759 -0.296332,0.39158 -0.105833,0.254 -0.105833,0.59267 z"
         style="font-style:normal;font-variant:normal;font-weight:bold;font-stretch:normal;font-family:'Rubik Light';-inkscape-font-specification:'Rubik Light, Bold';fill:#ffffff;fill-opacity:1;stroke-width:0.999895;stroke-miterlimit:4;stroke-dasharray:none"
         id="path859" />
      <path
         d="m 73.731,168.69884 q -0.116416,0 -0.190499,-0.0741 -0.07408,-0.0741 -0.07408,-0.1905 v -4.97415 q 0,-0.10584 0.07408,-0.17992 0.07408,-0.0847 0.190499,-0.0847 h 1.217079 q 0.116417,0 0.1905,0.0847 0.07408,0.0741 0.07408,0.17992 v 0.42333 q 0.285749,-0.32808 0.677331,-0.508 0.402166,-0.17992 0.899581,-0.17992 h 0.465665 q 0.105833,0 0.179916,0.0741 0.08467,0.0741 0.08467,0.1905 v 1.09008 q 0,0.10583 -0.08467,0.1905 -0.07408,0.0741 -0.179916,0.0741 h -1.02658 q -0.433916,0 -0.677331,0.24341 -0.232833,0.23284 -0.232833,0.66675 v 2.70933 q 0,0.11641 -0.08467,0.1905 -0.07408,0.0741 -0.1905,0.0741 z"
         style="font-style:normal;font-variant:normal;font-weight:bold;font-stretch:normal;font-family:'Rubik Light';-inkscape-font-specification:'Rubik Light, Bold';fill:#ffffff;fill-opacity:1;stroke-width:0.999895;stroke-miterlimit:4;stroke-dasharray:none"
         id="path861" />
    </g>
    <path
       id="path1349-5-0-0-2-5-2-5-0-60-3"
       clip-path="url(#clipPath1099-2-74-2)"
       style="fill:#ffffff;fill-opacity:0.5;stroke:none;stroke-width:1.81374;stroke-linecap:round;stroke-linejoin:round;stroke-miterlimit:4;stroke-dasharray:none;stroke-opacity:1"
       d="m 110.61719,299.72266 c -5.80105,0.0229 -11.704139,0.003 -17.544924,0.01 -2.222115,0.21679 -4.445972,1.03026 -6.153723,2.52076 -3.298065,2.66656 -4.741696,7.37079 -3.446667,11.41809 1.056376,3.61305 4.098155,6.55091 7.772598,7.41008 2.317687,0.5573 4.714874,0.23779 7.081698,0.32099 4.371198,-0.0207 8.755508,0.0413 13.118538,-0.0309 1.06005,-0.3046 1.07854,-1.6241 0.99538,-2.46828 -0.0821,-0.94232 0.2325,-2.09448 -0.26821,-3.00861 -0.72635,-0.88626 -1.96318,-0.45792 -2.92149,-0.55621 -5.20698,-0.018 -10.418472,0.0536 -15.622559,-0.0515 -2.763113,-0.31408 -4.796492,-3.33112 -4.024868,-6.00968 0.527358,-2.16635 2.652037,-3.76893 4.882463,-3.67234 5.589804,0.0236 11.237214,3.7e-4 16.864184,0.009 1.08052,-0.22789 1.20261,-1.55597 1.09142,-2.3992 -0.0862,-0.91792 0.23358,-2.0373 -0.26915,-2.92502 -0.35858,-0.4858 -0.98748,-0.59811 -1.55469,-0.5664 z"
       transform="matrix(3.1289666,0,0,3.1289666,-248.5572,-819.37733)" />
    <path
       id="path1349-5-0-0-2-5-1-8-7-3-7-6"
       clip-path="url(#clipPath1845-9-8-1-3-4)"
       style="fill:#ffffff;fill-opacity:0.25;stroke:none;stroke-width:1.814;stroke-linecap:round;stroke-linejoin:round;stroke-miterlimit:4;stroke-dasharray:none;stroke-opacity:1"
       d="m 110.61719,299.70312 c -5.80105,0.0229 -11.704139,0.003 -17.544924,0.01 -2.222151,0.21766 -4.446796,1.02926 -6.153112,2.5215 -3.289628,2.65849 -4.73773,7.34694 -3.455048,11.38662 1.071838,3.73611 4.282487,6.74859 8.102312,7.51382 2.219472,0.45184 4.501785,0.17131 6.759754,0.24798 4.371198,-0.0207 8.755508,0.0413 13.118538,-0.0309 1.06005,-0.3046 1.07854,-1.62411 0.99538,-2.46828 -0.0821,-0.94232 0.2325,-2.09448 -0.26821,-3.00861 -0.72635,-0.88626 -1.96318,-0.45792 -2.92149,-0.55621 -5.20638,-0.0172 -10.417054,0.0515 -15.62068,-0.049 -2.62375,-0.30934 -4.650605,-3.03862 -4.091753,-5.6422 0.340158,-2.26927 2.448415,-4.05806 4.741833,-4.0348 4.470633,-0.003 9.10319,0.004 13.63935,9.6e-4 1.20352,-0.0419 2.43353,0.0834 3.62067,-0.0618 1.0255,-0.39564 0.95588,-1.68399 0.89888,-2.53735 -0.0972,-0.90037 0.32274,-2.19433 -0.4758,-2.94183 -0.36997,-0.31626 -0.87847,-0.36739 -1.3457,-0.34961 z"
       transform="matrix(3.1289666,0,0,3.1289666,-253.5395,-819.37726)" />
  </g>
</svg>
